<?xml version="1.0" encoding="UTF-8"?>
<svg width="474.813" height="285.055" xmlns="http://www.w3.org/2000/svg">
 <g>
  <title>Layer 1</title>
  <rect height="281.875" width="471.66" fill="#FFFFFF" y="1.093" x="0.685"/>
  <path d="m2.28,2.684h468.476012v278.688986h-468.476012v-278.688986l0,0zm470.065001,-1.591v1.591v-1.591m-473.245001,283.460986h474.812994v-285.053986h-474.812994v285.053986l0,0z"/>
  <path d="m15.78,185.235992h140.408004c0.136002,-1.917999 0.222,-3.850006 0.222,-5.772995c0,-0.727005 -0.046005,-1.457001 -0.061005,-2.184006l-140.568999,-0.024994v7.981995" fill="#149A67"/>
  <path d="m15.78,202.580002h137.361999c0.740997,-2.609009 1.363998,-5.270996 1.854996,-7.957001l-139.218984,-0.020004l0.001989,7.977005" fill="#149A67"/>
  <path d="m15.772,167.891998h139.815005c-0.366013,-2.688004 -0.837006,-5.345993 -1.447006,-7.962997l-138.368999,-0.014008l0.001,7.977005" fill="#149A67"/>
  <path d="m15.78,95.582001v54.960007h135.647994c-5.096008,-14.585007 -13.687988,-27.230011 -23.900993,-35.567009c-10.179001,-8.347 -28.883003,-19.393997 -71.98201,-19.393997h-39.764991" fill="#149A67"/>
  <path d="m15.78,262.438995h40.485999c19.650002,0 42.141998,-2.253998 58.237999,-10.830002c3.362,-1.748001 6.556,-3.774994 9.584,-6.020996h0.152v-0.132996c11.277,-8.443008 20.107002,-20.188004 25.635002,-33.5l-134.097,-0.009995l0.002,50.493988" fill="#149A67"/>
  <path d="m165.744003,167.891998h181.626999c-0.363007,-2.694992 -0.864014,-5.337997 -1.47699,-7.949005l-178.675018,-0.013992c-0.612991,2.612 -1.105988,5.261993 -1.474991,7.962997" fill="#149A67"/>
  <path d="m256.558014,265.820007c38.28299,0 71.220001,-22.22699 84.886017,-53.847992l-169.763016,-0.016006c13.643982,31.631989 46.588989,53.863998 84.876999,53.863998" fill="#149A67"/>
  <path d="m168.281006,202.580002h176.552002c0.770996,-2.598007 1.410004,-5.262009 1.904999,-7.943008l-180.375,-0.013992c0.513992,2.694992 1.156998,5.350998 1.917999,7.957001" fill="#149A67"/>
  <path d="m170.037994,150.550995h173.048004c-12.596985,-34.501991 -47.084991,-58.354996 -86.527985,-58.354996c-39.432007,0.001999 -73.933014,23.851997 -86.52002,58.354996" fill="#149A67"/>
  <path d="m164.936005,179.462997c0,1.943008 0.085999,3.861008 0.228989,5.772995h182.781021c0.144989,-1.911987 0.231995,-3.829987 0.231995,-5.772995c0,-0.727005 -0.039001,-1.440994 -0.059998,-2.167999l-183.126007,-0.015991c-0.02301,0.72699 -0.056,1.442993 -0.056,2.18399" fill="#149A67"/>
  <rect height="55.557" width="106.104" fill="#149A67" y="94.988" x="350.818"/>
  <polygon points="369.196,262.461 438.106,262.461 438.106,211.986 369.196,211.978 " fill="#149A67"/>
  <polygon points="369.196,167.892 438.106,167.892 438.106,159.957 369.196,159.949 " fill="#149A67"/>
  <polygon points="369.196,185.236 438.106,185.236 438.106,177.299 369.196,177.295 " fill="#149A67"/>
  <rect height="7.939" width="68.903" fill="#149A67" y="194.642" x="369.203"/>
  <line y2="76.209" x2="456.63" y1="76.209" x1="15.833" stroke-miterlimit="10" stroke-width="9.396" stroke="#000000" fill="none"/>
  <polygon points="42.698,21.429 42.698,51.759 42.586,51.759 25.338,21.429 16.541,21.429 16.541,63.143 24.264,63.143   24.264,32.815 24.379,32.815 41.795,63.143 50.42,63.143 50.42,21.429 "/>
  <polygon points="57.352,21.429 57.352,63.143 79.796,63.143 79.796,55.925 65.074,55.925 65.074,46.057 79.167,46.057   79.167,38.845 65.074,38.845 65.074,28.643 79.796,28.643 79.796,21.429 "/>
  <polygon points="127.871,21.429 120.608,50.567 120.488,50.567 113.5,21.429 107.857,21.429 100.702,50.567 100.587,50.567   93.372,21.429 85.481,21.429 97.657,63.143 103.748,63.143 110.626,35.575 110.731,35.575 117.495,63.143 123.645,63.143   135.761,21.429 "/>
  <polygon points="196.531,21.429 187.396,40.591 178.316,21.429 169.867,21.429 183.563,47.752 183.563,63.136 191.287,63.136   191.287,47.752 205.044,21.429 "/>
  <path d="m210.735992,42.339001c0,-8.001999 6.255997,-14.543001 14.093002,-14.543001c7.837997,0 14.093994,6.539 14.093994,14.543001c0,7.725998 -6.149994,14.429001 -14.093994,14.429001c-7.945999,0.001999 -14.093002,-6.703003 -14.093002,-14.429001m-7.721985,0.054001c0,11.956997 9.806,21.593998 21.815002,21.593998c12.003998,0 21.813004,-9.637001 21.813004,-21.593998c0,-12.341002 -9.975006,-21.808002 -21.813004,-21.808002s-21.815002,9.467001 -21.815002,21.808002"/>
  <path d="m258.312988,28.643h4.950989c6.045013,0 7.445007,4.008001 7.445007,6.313002c0,2.199997 -1.070007,6.434998 -7.445007,6.434998h-4.950989v-12.747999m-7.729996,-7.213999v41.714001h7.729996v-15.959003h0.113007l11.046997,15.959003h9.354004l-11.330994,-15.392002c2.082977,-0.501999 4.455994,-1.067001 6.929993,-3.439999c2.990997,-2.875 4.015991,-7.211002 4.015991,-9.968002c0,-4.798998 -2.544983,-8.182999 -4.908997,-10.102999c-2.365997,-1.917999 -5.354004,-2.813 -10.145996,-2.813l-12.804001,0.002001"/>
  <polygon points="304.029,21.429 291.004,39.464 290.892,39.464 290.892,21.429 283.173,21.429 283.173,63.143 290.892,63.143   290.892,44.823 291.004,44.823 304.029,63.143 313.101,63.143 297.372,41.948 313.101,21.429 "/>
  <path d="m339.032013,42.115002c0,11.785 9.687988,21.876999 21.752991,21.876999c8.009003,0 16.011993,-4.791 19.281006,-12.465h-8.968994c-1.854004,1.973999 -4.895996,5.248001 -10.476013,5.248001c-7.395996,0 -13.868988,-6.711002 -13.868988,-14.549c0,-8.346001 6.815002,-14.430002 13.57901,-14.430002c4.620972,0 8.173981,2.076 11.165985,5.527002h8.794006c-3.994995,-9.135002 -12.731995,-12.754002 -19.670013,-12.754002c-12.061005,0.003 -21.588989,10.049 -21.588989,21.546001"/>
  <line y2="21.423" x2="388.609" y1="63.143" x1="388.609" stroke-miterlimit="10" stroke-width="7.722" stroke="#000000" fill="none"/>
  <polygon points="398.675,21.429 398.675,28.643 406.394,28.643 406.394,63.136 414.112,63.136 414.112,28.643 421.892,28.643   421.892,21.429 "/>
  <polygon points="450.407,21.429 441.284,40.591 432.214,21.429 423.763,21.429 437.447,47.752 437.447,63.136 445.173,63.136   445.173,47.752 458.935,21.429 "/>
 </g>
</svg>